inDegrees=no
num_controls=7
num_derivatives=13
num_iterations=162
num_multipliers=7
num_parameters=0
num_slacks=7
num_states=26
objective=5.406617
objective_accelerations=0.615137
objective_balance=0.035424
objective_effort=0.234700
objective_height=4.431081
objective_ligament=0.090276
solver_duration=1797.336139
status=Solve_Succeeded
success=true
DataType=double
version=3
OpenSimVersion=4.4-2022-07-23-0e9fedc
endheader
time	/jointset/ground_pelvis/pelvis_tilt/value	/jointset/ground_pelvis/pelvis_tx/value	/jointset/ground_pelvis/pelvis_ty/value	/jointset/hip_l/hip_flexion_l/value	/jointset/hip_l/hip_adduction_l/value	/jointset/hip_l/hip_rotation_l/value	/jointset/back/lumbar_extension/value	/jointset/patellofemoral_l/patellar_flexion_l/value	/jointset/knee_l/knee_flexion_l/value	/jointset/knee_l/knee_adduction_l/value	/jointset/knee_l/knee_rotation_l/value	/jointset/ankle_l/ankle_angle_l/value	/jointset/subtalar_l/subtalar_angle_l/value	/jointset/ground_pelvis/pelvis_tilt/speed	/jointset/ground_pelvis/pelvis_tx/speed	/jointset/ground_pelvis/pelvis_ty/speed	/jointset/hip_l/hip_flexion_l/speed	/jointset/hip_l/hip_adduction_l/speed	/jointset/hip_l/hip_rotation_l/speed	/jointset/back/lumbar_extension/speed	/jointset/patellofemoral_l/patellar_flexion_l/speed	/jointset/knee_l/knee_flexion_l/speed	/jointset/knee_l/knee_adduction_l/speed	/jointset/knee_l/knee_rotation_l/speed	/jointset/ankle_l/ankle_angle_l/speed	/jointset/subtalar_l/subtalar_angle_l/speed	/forceset/tau_hip_flexion_l	/forceset/tau_hip_adduction_l	/forceset/tau_hip_rotation_l	/forceset/tau_knee_flexion_l	/forceset/tau_ankle_angle_l	/forceset/tau_subtalar_angle_l	/forceset/tau_lumbar_extension	lambda_cid13_p0	lambda_cid13_p1	lambda_cid13_p2	lambda_cid13_p3	lambda_cid13_p4	lambda_cid13_p5	lambda_cid14_p0	/jointset/ground_pelvis/pelvis_tilt/accel	/jointset/ground_pelvis/pelvis_tx/accel	/jointset/ground_pelvis/pelvis_ty/accel	/jointset/hip_l/hip_flexion_l/accel	/jointset/hip_l/hip_adduction_l/accel	/jointset/hip_l/hip_rotation_l/accel	/jointset/back/lumbar_extension/accel	/jointset/patellofemoral_l/patellar_flexion_l/accel	/jointset/knee_l/knee_flexion_l/accel	/jointset/knee_l/knee_adduction_l/accel	/jointset/knee_l/knee_rotation_l/accel	/jointset/ankle_l/ankle_angle_l/accel	/jointset/subtalar_l/subtalar_angle_l/accel	gamma_cid13_p0	gamma_cid13_p1	gamma_cid13_p2	gamma_cid13_p3	gamma_cid13_p4	gamma_cid13_p5	gamma_cid14_p0
0	-0.0421415005493575	0.07007138225559699	0.8960569397223896	0.1955292361009247	-0.320881474426613	-0.5056052575227222	-0.137903700187828	0.0701535092839192	0.07015350928391206	-0.174532925045431	-0.1389642886209183	-0.06701017130107029	0.005280046988651555	0	0	0	0	0	0	0	0	0	0	0	0	0	0.1050407386593574	-0.1250440271426642	-0.03813069488272275	-0.2667927931738501	0.2578658897667969	-0.01180847229716329	-0.04464243458130757	47.52499107773949	-6.235015113940406	4.132985124276855	-30.3341937285759	-518.0423585737806	-86.68122942205474	-40.49749933661899	-2.725562375076195	-0.7748244453378138	-0.7791821200619051	9.417430978466831	-2.240774567527116	3.452301376062294	-2.507574986308779	10.49021287969981	10.49021287969975	0.8536824573711337	-0.6296807084523357	3.991952531900038	-0.2788656911830639	-4.519779496321036e-08	1.399244921858557e-07	1.293204432242731e-07	2.94121970139166e-08	-3.841799207516337e-08	-6.373246637208199e-08	-4.396194637628439e-09
0.01	-0.04226958192056181	0.07003322151048542	0.8960192019046729	0.1959829035589828	-0.3209916387298992	-0.5054311513328469	-0.138033857136165	0.07066365310272524	0.07066365310271404	-0.1744933930447916	-0.1389890260303196	-0.06681620022159082	0.005265036795886288	-0.02547692413524334	-0.007607328718644372	-0.007524375066129055	0.09032771168152749	-0.02193032838924661	0.03468044666585266	-0.02580257436854163	0.1015856818799972	0.1015856818800058	0.007869669942590557	-0.00491688240967555	0.038616319434569	-0.002987936157731014	0.1002890007824271	-0.12540863759895	-0.03700138285201759	-0.2594001263728772	0.2456648224291575	-0.00628087585926708	-0.04080248765247181	43.77387567661043	-7.962894757543707	4.390222529696378	-28.31831168256111	-518.8781717776396	-90.46320841461859	-40.50745189827217	-2.437867623178046	-0.7499581574894539	-0.7355946119097754	8.779560645143528	-2.153819484458761	3.454784675536319	-2.582276367007822	9.926284439252301	9.926284439253443	0.7481397544761843	-0.418091174818821	3.76978652276115	-0.3066787961597477	-8.967616559046572e-08	1.711888024088032e-07	2.194847060607618e-07	6.669621095630286e-08	-2.401727917838507e-07	-1.337421890193622e-07	-1.069741355380053e-08
0.02	-0.04264825457120978	0.06991973326371449	0.8959069144538908	0.1973276720102853	-0.3213180378190459	-0.5049144670035793	-0.1384151753691642	0.07217636145975509	0.07217636145975355	-0.1743762582463494	-0.1390620120973362	-0.06624140297306069	0.005220562997925468	-0.05011825588765996	-0.01506550033186863	-0.01490992661303681	0.1782201986489549	-0.0432469571719126	0.0685156278792883	-0.05023225693229567	0.2005129076441026	0.2005129076441141	0.01552055955610334	-0.009649731523099751	0.07616523381017001	-0.005892721039130942	0.09553726290556808	-0.12577324805523	-0.03587207082130781	-0.2520074595718467	0.2334637550915482	-0.0007532794213479046	-0.03696254072360782	40.08836589915193	-9.703419189826738	4.650800285998032	-26.53368237049742	-518.7972972932034	-94.06766641457067	-40.53676844055251	-2.558443898510705	-0.7449930242539169	-0.7514174162176473	8.930386035646816	-2.118034646211025	3.283248285578888	-2.232996625351163	9.958521656521484	9.958521656520253	0.8099263915555154	-0.5928740492021014	3.778471520106301	-0.2622354359169606	-1.341545362177211e-07	2.024531126317506e-07	3.096489688972505e-07	1.039802248986891e-07	-4.41927591492538e-07	-2.037519116666424e-07	-1.699863246997262e-08
0.03	-0.04326967901785653	0.06973248499266671	0.8957212187246277	0.199540118695254	-0.3218543203681476	-0.5040639684652143	-0.139033712209167	0.07466556674844048	0.07466556674845785	-0.1741833383080221	-0.1391818699413859	-0.06529615079701093	0.005147838067236898	-0.07403397694719181	-0.02234989999266794	-0.02222356080792767	0.2638732709596071	-0.06388344105418038	0.1014524696911972	-0.07327145244505619	0.2968772455619013	0.2968772455619332	0.02304509923097706	-0.01427693088451108	0.1127157996845904	-0.008609885640088851	0.09112571161921115	-0.119543662959531	-0.0349303396078179	-0.2462361603060027	0.2265026096642243	-0.001840226020777425	-0.03341708812256976	37.81589850555751	-8.987389369606571	4.712462679814271	-25.01080191378647	-518.9496277282743	-92.03753436706695	-40.58424459210006	-2.288253121993972	-0.7150044079162639	-0.720576857070068	8.323364799893298	-2.01760253080556	3.279122076322495	-2.308832220502838	9.407757604761095	9.407757604764743	0.7210420210755768	-0.3908715393565992	3.567933709642963	-0.2701664318121469	-1.658172213743852e-07	2.245928121864848e-07	3.721674501190313e-07	1.326631744305815e-07	-5.955290912300266e-07	-2.523802359159223e-07	-2.063766332879168e-08
0.04	-0.04412628405756243	0.06947342453082578	0.8954625385662275	0.2025972154975476	-0.3225931972103856	-0.5028880575192559	-0.139876531245548	0.07810488896539275	0.07810488896539197	-0.1739157081197685	-0.1393466455109617	-0.06399047604451027	0.005049199598613479	-0.0971543744994877	-0.0294279384904962	-0.02950681244045071	0.3471502221150145	-0.08376581579928105	0.1335981093961324	-0.09508869620836519	0.390536293293785	0.3905362932938367	0.03046260953072979	-0.01863327663576365	0.1482497491003326	-0.0110754286261308	0.0867141603327771	-0.113314077863872	-0.0339886083945346	-0.2404648610401769	0.2195414642368699	-0.002927172620264237	-0.02987163552154858	35.60446406150052	-8.280459646670272	4.77376533073327	-23.70337205762678	-518.2559638913949	-89.83751694687605	-40.6483176370842	-2.399379197063382	-0.7037207916598395	-0.7453409037440826	8.455161804597829	-1.967212818777619	3.12500786418413	-1.988606275460771	9.417463619338529	9.417463619337161	0.7885205165312958	-0.5387033271703913	3.575148228370515	-0.2119111129338622	-1.972156655935114e-07	2.465443754387816e-07	4.341159152250449e-07	1.611687824282369e-07	-7.481377394217172e-07	-3.005677065899856e-07	-2.42218037122014e-08
0.05	-0.04521073549485941	0.06914465945579178	0.8951309390951645	0.2064762541892787	-0.3235271707544076	-0.5013951170758039	-0.14093087372838	0.08246801204868494	0.08246801204869383	-0.1735745023336576	-0.1395543447329786	-0.06233425393749319	0.004927265084889194	-0.119608967329406	-0.03628386055872353	-0.03682277142760102	0.4282605424755982	-0.1028981409466225	0.164849693659968	-0.1155801848317159	0.481628564619368	0.4816285646193894	0.03773930027070231	-0.02286545832742088	0.182823828028731	-0.01326614044817392	0.08230573112984327	-0.1095574130151877	-0.03305745941610158	-0.235617782915317	0.2121488021422752	-0.001870683020838735	-0.02635362066239462	33.31399308472028	-8.419188265524589	4.888335006071194	-22.45012376643635	-517.8369186361439	-89.58099811091917	-40.72702996145378	-2.149473758106957	-0.6703130570303867	-0.7263277052741862	7.879392251841015	-1.866711602472559	3.104134997795386	-2.049477826534484	8.886149950602217	8.886149950598492	0.6914526427285669	-0.3592567010609442	3.372902909452086	-0.2159381286508781	-2.184560821914023e-07	2.328673288849706e-07	4.825568888168105e-07	1.764609509361346e-07	-8.517361337269776e-07	-3.428851249667335e-07	-2.98276991084347e-08
0.06	-0.04651592774688691	0.06874857813154973	0.8947258591724162	0.211154481104621	-0.3246485613978553	-0.4995938805316478	-0.1421841426315973	0.08772826605753327	0.08772826605753511	-0.1731616877821229	-0.1398031219940685	-0.06033741800431659	0.004784766070582259	-0.1413025374453523	-0.04289118833210371	-0.04420290277753505	0.5069878668382679	-0.1212492356843722	0.1952573295362904	-0.1348739802855328	0.5699624784023166	0.5699624784023145	0.04478436261060106	-0.02684888445498324	0.2163725143322331	-0.01518832874267516	0.07789730192687311	-0.1058007481665208	-0.0321263104377978	-0.2307707047904395	0.2047561400476801	-0.0008141934214308502	-0.02283560580326417	31.07876683570735	-8.566444237575263	5.002956575122709	-21.3938681781103	-516.65079975813	-89.17141849022862	-40.8181838669371	-2.247174654268862	-0.6540019326905384	-0.758175376300827	7.978562605015009	-1.810966736859277	2.956218186681487	-1.749067641553901	8.865792110811721	8.865792110811689	0.7421948365165277	-0.488952214351457	3.370069703391104	-0.158206407425578	-2.392687923631358e-07	2.176901303393236e-07	5.304291259237656e-07	1.911967640970951e-07	-9.532709383949144e-07	-3.849553832467522e-07	-3.551872103152372e-08
0.07000000000000001	-0.04803488701862921	0.06828761076644596	0.8942464544038483	0.2166093980725955	-0.3259495204350784	-0.4974932060798887	-0.143623884384019	0.09385896767557068	0.09385896767557603	-0.1726793145058846	-0.1400912304599624	-0.05800993403542076	0.004624577932837215	-0.1623656424927263	-0.04926362272047615	-0.05169920264207523	0.5836132808872504	-0.1387975518866029	0.2247392853382042	-0.1528890147290694	0.6557116744181505	0.65571167441807	0.05166039976479586	-0.03072721510751959	0.2489458763386238	-0.01679356910742654	0.07334801326246895	-0.1013422569297788	-0.03117955600776048	-0.2263527242881761	0.197676235475712	-0.0002565562140907333	-0.01925472925169015	28.8985422527855	-8.519519941833407	5.101287133348788	-20.18216741835882	-515.7965102613678	-88.34826550637834	-40.91930178136686	-2.017341731257356	-0.6230264790667787	-0.7487219323485278	7.447163649557698	-1.705098440552398	2.923370728495033	-1.799918024973428	8.35956490171206	8.35956490170042	0.6559273931561117	-0.3303643310321498	3.174197972105115	-0.1534162115348871	-2.489588736234243e-07	1.85738742214124e-07	5.563922023712393e-07	1.957906951050234e-07	-1.007698264557827e-06	-4.121456278157929e-07	-4.023207574035156e-08
0.08	-0.04976077000110653	0.06776408660002686	0.8936914137084717	0.2228190957499933	-0.3274216295100518	-0.4951018747797943	-0.1452382158167213	0.1008331775647156	0.1008331775647108	-0.1721290570104262	-0.1404167404004422	-0.05536207074189275	0.004449990719337585	-0.1826872795914997	-0.05540254859516959	-0.05933008813927369	0.6579440087249496	-0.1554792432347302	0.2533886992020659	-0.1697919163413781	0.7386641326236985	0.7386641326235427	0.05836120645039077	-0.03432917937315424	0.2804483792586952	-0.01806814389358059	0.06879872459795983	-0.0968837656930529	-0.03023280157776994	-0.2219347437859654	0.1905963309037163	0.0003010809932174657	-0.01567385270017112	26.76806703774119	-8.478849673543088	5.197809230022997	-19.14603067482811	-514.2527544305734	-87.38732260106632	-41.02773128168456	-2.098881064548625	-0.6073002299548603	-0.7850925028324816	7.519625362758319	-1.637641766038602	2.789709799071058	-1.526641075308218	8.306444548754589	8.306444548755152	0.7071487427965342	-0.4336789369711518	3.155897886127129	-0.09207329170619641	-2.57931365921684e-07	1.527051483095986e-07	5.809417845826175e-07	1.997303111353367e-07	-1.059086398559126e-06	-4.383758715002542e-07	-4.488235514503352e-08
